{"title":"The Maze Runner(2014)MPEG-4[DaScubaDude]","uid":13751132,"size":1129355058,"categoryP":"video","categoryS":"movies","magnet":"?xt=urn:btih:0f00b5ab626d17e05b3073136b538621ceca94b0&amp;dn=The+Maze+Runner%282014%29MPEG-4%5BDaScubaDude%5D&amp;tr=udp%3A%2F%2Ftracker.leechers-paradise.org%3A6969&amp;tr=udp%3A%2F%2Fzer0day.ch%3A1337&amp;tr=udp%3A%2F%2Fopen.demonii.com%3A1337&amp;tr=udp%3A%2F%2Ftracker.coppersurfer.tk%3A6969&amp;tr=udp%3A%2F%2Fexodus.desync.com%3A6969","seeders":0,"leechers":1,"uploader":"dascuba","files":1,"time":1457155993,"description":"The Maze Runner (2014)\r\nPG-13 | 1h 53min | Action, Mystery, Sci-Fi | 19 September 2014 (USA)\r\nThomas is deposited in a community of boys after his memory is erased, soon learning they're all trapped in a maze that will require him to join forces with fellow &quot;runners&quot; for a shot at escape.\r\nDirector: Wes Ball\r\nWriters: Noah Oppenheim (screenplay), Grant Pierce Myers (screenplay) | 2 more credits »\r\nStars: Dylan O'Brien, Kaya Scodelario, Will Poulter \r\n\r\nGeneral\r\nComplete name                            : The Maze RunnerTHE_MAZE_RUNNER_Title12.mp4\r\nFormat                                   : MPEG-4\r\nFormat profile                           : Base Media\r\nCodec ID                                 : isom\r\nFile size                                : 1.05 GiB\r\nDuration                                 : 1h 53mn\r\nOverall bit rate                         : 1 328 Kbps\r\nMovie name                               : THE_MAZE_RUNNER\r\nWriting application                      : Lavf54.6.100\r\n\r\nVideo\r\nID                                       : 1\r\nFormat                                   : AVC\r\nFormat/Info                              : Advanced Video Codec\r\nFormat profile                           :   \r\nFormat settings, CABAC                   : No\r\nFormat settings, ReFrames                : 6 frames\r\nCodec ID                                 : avc1\r\nCodec ID/Info                            : Advanced Video Coding\r\nDuration                                 : 1h 53mn\r\nBit rate                                 : 1 193 Kbps\r\nWidth                                    : 720 pixels\r\nHeight                                   : 404 pixels\r\nDisplay aspect ratio                     : 16:9\r\nFrame rate mode                          : Constant\r\nFrame rate                               : 29.970 fps\r\nColor space                              : YUV\r\nChroma subsampling                       : 4:2:0\r\nBit depth                                : 8 bits\r\nScan type                                : Progressive\r\nBits/(Pixel*Frame)                       : 0.137\r\nStream size                              : 968 MiB (90%)\r\n\r\nAudio\r\nID                                       : 2\r\nFormat                                   : AAC\r\nFormat/Info                              : Advanced Audio Codec\r\nFormat profile                           : LC\r\nCodec ID                                 : 40\r\nDuration                                 : 1h 53mn\r\nBit rate mode                            : Constant\r\nBit rate                                 : 128 Kbps\r\nChannel(s)                               : 2 channels\r\nChannel positions                        : Front: L R\r\nSampling rate                            : 44.1 KHz\r\nCompression mode                         : Lossy\r\nStream size                              : 104 MiB (10%)","torrent":{"xt":"urn:btih:0f00b5ab626d17e05b3073136b538621ceca94b0","amp;dn":"The+Maze+Runner%282014%29MPEG-4%5BDaScubaDude%5D","amp;tr":["udp%3A%2F%2Ftracker.leechers-paradise.org%3A6969","udp%3A%2F%2Fzer0day.ch%3A1337","udp%3A%2F%2Fopen.demonii.com%3A1337","udp%3A%2F%2Ftracker.coppersurfer.tk%3A6969","udp%3A%2F%2Fexodus.desync.com%3A6969"],"infoHash":"0f00b5ab626d17e05b3073136b538621ceca94b0","infoHashBuffer":{"type":"Buffer","data":[15,0,181,171,98,109,23,224,91,48,115,19,107,83,134,33,206,202,148,176]},"announce":[],"urlList":[]}}